<?xml version="1.0" standalone="no"?>
<!DOCTYPE svg PUBLIC "-//W3C//DTD SVG 20010904//EN"
 "http://www.w3.org/TR/2001/REC-SVG-20010904/DTD/svg10.dtd">
<svg version="1.0" xmlns="http://www.w3.org/2000/svg"
 width="320.000000pt" height="320.000000pt" viewBox="0 0 320.000000 320.000000"
 preserveAspectRatio="xMidYMid meet">
<metadata>
Created by potrace 1.14, written by Peter Selinger 2001-2017
</metadata>
<g transform="translate(0.000000,320.000000) scale(0.100000,-0.100000)"
fill="#000000" stroke="none">
<path d="M1460 3054 c-138 -47 -248 -118 -352 -227 -61 -65 -64 -69 -103 -197
-46 -152 -53 -249 -28 -402 4 -30 2 -38 -10 -38 -28 0 -58 -35 -68 -78 -7 -35
-5 -56 12 -112 11 -38 29 -81 40 -94 10 -13 19 -36 19 -51 0 -39 18 -65 44
-65 21 0 24 -6 30 -55 7 -65 42 -196 63 -241 15 -30 14 -32 -22 -86 -32 -47
-44 -57 -75 -62 -48 -8 -155 -52 -266 -111 -101 -53 -239 -105 -299 -112 -45
-5 -50 -7 -155 -57 -41 -19 -91 -50 -110 -69 -64 -60 -125 -105 -153 -112
l-27 -7 0 -439 0 -439 343 0 342 0 20 38 c17 32 25 37 50 34 90 -9 128 -5 141
13 8 10 14 14 14 9 0 -6 18 -21 41 -33 32 -19 49 -22 84 -16 42 6 45 5 51 -19
6 -24 11 -26 60 -26 43 0 52 3 48 15 -4 9 0 15 10 15 9 0 16 4 16 10 0 5 -7 7
-17 3 -12 -5 -15 -2 -11 13 3 10 7 25 9 33 2 8 -4 17 -14 19 -17 3 -18 -2 -15
-40 3 -38 1 -43 -17 -40 -29 5 -43 21 -26 31 15 10 6 31 -12 30 -8 0 -8 -2 1
-6 10 -4 10 -8 1 -19 -10 -13 -15 -12 -34 0 -12 8 -40 18 -61 22 -21 3 -43 9
-48 12 -12 7 -104 15 -163 14 -29 0 -55 4 -59 9 -4 6 -11 6 -20 -2 -8 -6 -27
-9 -44 -6 -16 4 -32 3 -34 -2 -3 -5 -17 -11 -31 -13 -24 -5 -25 -4 -20 36 l5
41 -14 -30 c-9 -16 -15 -36 -16 -42 0 -7 -4 -13 -10 -13 -17 0 -11 51 12 102
26 58 56 67 50 15 -2 -17 2 -43 8 -57 l10 -25 -5 28 c-13 67 28 110 84 87 28
-11 31 -17 33 -59 l1 -46 4 43 c2 24 -1 49 -6 56 -6 7 -8 16 -4 19 10 11 73 8
73 -3 0 -5 -4 -10 -9 -10 -5 0 -11 -23 -13 -50 -3 -46 -1 -50 17 -48 17 3 20
11 20 61 l-1 58 51 -6 c27 -4 58 -9 68 -11 18 -6 24 -24 7 -24 -5 0 -10 -4
-10 -10 0 -18 28 -10 33 10 4 17 9 18 38 10 46 -13 63 -37 46 -64 -8 -12 -11
-31 -8 -44 6 -22 7 -22 46 18 45 47 70 52 63 15 -6 -27 10 -33 29 -14 9 9 20
6 46 -10 19 -12 40 -28 47 -36 10 -12 9 -15 -7 -15 -11 0 -25 -11 -31 -25 -25
-55 -26 -55 153 -55 158 0 165 1 154 18 -18 28 2 75 35 87 42 15 61 -3 61 -59
l0 -46 547 0 548 0 5 23 c2 12 6 33 7 47 4 30 48 43 48 14 0 -9 16 -32 36 -50
l35 -34 155 0 154 0 0 441 0 440 -21 -6 c-15 -5 -19 -4 -15 4 4 7 -1 11 -13
11 -12 0 -21 7 -21 16 0 8 -4 13 -9 9 -5 -3 -19 7 -30 21 -13 16 -31 26 -46
26 -20 0 -23 3 -14 14 9 11 7 14 -8 14 -11 0 -30 11 -43 25 -13 14 -18 25 -11
25 7 0 10 4 7 8 -8 13 13 39 22 26 4 -6 27 -21 52 -35 25 -13 51 -30 58 -37 7
-6 19 -12 26 -12 7 0 24 -9 37 -21 l24 -21 3 88 c3 100 0 114 -26 114 -16 0
-21 10 -26 51 -4 28 -5 54 -1 57 3 3 5 -2 5 -11 0 -28 18 -19 22 10 l4 28 8
-29 c6 -19 5 -31 -4 -36 -14 -8 -10 -55 5 -55 6 0 11 63 13 163 2 106 -1 162
-8 162 -5 0 -10 10 -10 23 0 18 2 19 10 7 7 -11 10 3 9 45 0 33 -3 55 -5 48
-3 -6 -25 -17 -50 -24 -46 -14 -49 -20 -38 -79 5 -22 9 -28 15 -18 7 10 9 9 9
-3 0 -9 -7 -19 -15 -23 -11 -4 -15 2 -15 22 -1 30 -28 97 -29 71 -1 -16 -52
-59 -71 -59 -5 0 -10 -6 -10 -12 0 -7 -11 -14 -25 -14 -32 -2 -32 16 0 44 14
12 26 22 28 21 23 -5 87 52 87 79 1 16 1 16 11 0 14 -24 50 -23 56 2 3 11 14
20 24 20 13 0 20 10 23 33 7 40 1 166 -8 188 -4 10 -3 20 3 24 13 8 15 65 2
65 -5 0 -11 -6 -14 -12 -2 -7 -8 -10 -13 -5 -4 4 2 14 14 23 19 13 22 25 22
80 l0 65 -32 -38 c-18 -21 -47 -54 -65 -73 -45 -50 -207 -253 -262 -329 -25
-35 -94 -119 -153 -187 -60 -67 -108 -126 -108 -129 0 -4 -11 -20 -25 -37 -18
-21 -23 -36 -19 -54 3 -13 2 -24 -2 -25 -5 0 -22 -2 -37 -4 -15 -2 -46 3 -69
11 -22 8 -62 14 -89 14 -26 0 -50 4 -54 9 -17 29 -171 92 -257 106 -37 6 -48
21 -29 41 19 20 81 147 96 197 20 67 37 169 38 229 1 37 5 47 16 45 24 -3 60
97 61 169 0 65 -15 92 -46 80 -14 -5 -15 4 -11 81 3 49 7 97 10 108 14 59 17
148 7 205 -12 65 -70 185 -142 292 -69 103 -239 219 -369 252 -86 21 -110 20
-199 -10z m94 -9 c16 17 18 17 32 -4 18 -24 34 -28 34 -6 0 8 -5 15 -12 15 -6
0 -9 3 -5 6 3 3 15 3 26 -1 15 -4 21 -15 21 -35 0 -16 7 -30 16 -34 12 -4 15
-2 10 9 -7 18 10 20 21 3 4 -7 7 -24 8 -37 0 -13 6 -26 14 -29 10 -3 12 1 9
16 -3 11 -2 26 3 33 7 11 13 9 31 -9 16 -16 18 -21 6 -17 -13 5 -15 2 -11 -13
4 -17 -1 -21 -23 -24 -23 -2 -29 -8 -31 -30 -1 -15 4 -29 13 -32 8 -3 14 -13
14 -23 0 -15 2 -15 9 -4 8 12 12 12 25 2 10 -9 28 -11 47 -7 22 4 29 2 27 -6
-5 -14 23 -31 68 -42 16 -4 53 -19 82 -34 44 -23 54 -33 63 -64 5 -21 14 -38
19 -38 6 0 10 -9 10 -20 0 -11 4 -20 9 -20 10 0 25 -69 17 -78 -9 -9 -66 59
-73 88 -19 76 -127 90 -152 19 -5 -16 -15 -29 -20 -29 -6 0 -11 -9 -11 -19 0
-10 -7 -22 -16 -25 -22 -8 -9 -45 27 -74 16 -13 29 -29 29 -36 0 -20 41 -49
52 -38 6 6 18 7 27 2 9 -4 33 -16 55 -26 21 -11 46 -30 55 -44 14 -23 14 -24
0 -12 -18 14 -103 17 -198 8 -52 -6 -67 -4 -82 10 -11 10 -22 14 -26 11 -3 -4
-12 -2 -20 4 -9 8 -17 8 -25 2 -7 -6 -26 -13 -41 -17 -22 -5 -32 -2 -47 16
-12 14 -19 18 -20 10 0 -13 -10 -13 -155 0 -5 0 -22 -3 -36 -7 -16 -4 -30 -2
-33 4 -4 5 -13 8 -21 4 -10 -3 -15 1 -15 13 0 16 -2 17 -10 4 -8 -13 -10 -13
-10 2 0 9 -6 18 -12 21 -7 2 1 8 17 12 17 5 45 19 63 33 17 13 32 20 33 16 0
-5 4 1 9 14 6 13 18 22 32 22 20 1 21 2 6 11 -10 5 -18 19 -18 29 0 11 -7 20
-15 20 -18 0 -20 27 -2 33 7 2 -5 19 -30 42 -24 20 -43 44 -43 51 0 8 -10 14
-22 15 -22 0 -22 1 -3 9 20 9 19 9 -2 15 -12 4 -29 17 -37 30 -14 21 -14 23 7
29 12 3 35 6 50 6 16 0 35 7 43 15 8 8 23 19 32 25 14 8 14 11 4 18 -11 8 -11
10 2 15 19 8 21 33 4 40 -10 4 -9 8 2 16 8 6 10 11 5 11 -6 0 -17 -6 -24 -12
-11 -11 -12 -9 -4 7 13 25 6 46 -13 38 -22 -8 -17 1 21 42 29 32 37 36 50 25
12 -10 16 -9 22 6 6 17 7 17 13 0 6 -18 7 -18 24 -1z m136 -5 c0 -5 -5 -10
-11 -10 -5 0 -7 5 -4 10 3 6 8 10 11 10 2 0 4 -4 4 -10z m30 -20 c0 -5 -4 -10
-10 -10 -5 0 -10 5 -10 10 0 6 5 10 10 10 6 0 10 -4 10 -10z m-306 -15 c-10
-8 -26 -14 -34 -14 -9 0 -4 6 10 14 33 19 49 19 24 0z m401 -50 c2 -11 6 -28
9 -37 6 -13 3 -15 -15 -11 -19 5 -21 3 -17 -15 5 -16 2 -22 -11 -22 -23 0 -23
31 0 48 20 14 22 52 2 52 -7 0 -17 9 -23 20 -11 20 -10 20 21 2 18 -10 33 -27
34 -37z m-382 -2 c-7 -2 -19 -2 -25 0 -7 3 -2 5 12 5 14 0 19 -2 13 -5z m412
-13 c3 -5 1 -10 -4 -10 -6 0 -11 5 -11 10 0 6 2 10 4 10 3 0 8 -4 11 -10z
m-450 -30 c3 -5 3 -15 -1 -21 -6 -11 -23 6 -24 24 0 10 18 9 25 -3z m351 -36
c-5 -13 -10 -14 -18 -6 -6 6 -8 18 -4 28 5 13 10 14 18 6 6 -6 8 -18 4 -28z
m105 -3 c4 7 11 10 15 6 4 -3 1 -13 -6 -22 -10 -12 -16 -13 -26 -4 -8 6 -11
16 -7 22 4 8 8 7 11 -2 4 -11 6 -11 13 0z m-421 -21 c0 -5 -13 -10 -30 -10
-16 0 -30 5 -30 10 0 6 14 10 30 10 17 0 30 -4 30 -10z m430 -321 c0 -5 -4 -9
-10 -9 -5 0 -10 7 -10 16 0 8 5 12 10 9 6 -3 10 -10 10 -16z m245 -39 c3 -5 1
-10 -4 -10 -6 0 -11 5 -11 10 0 6 2 10 4 10 3 0 8 -4 11 -10z m35 -75 c0 -5
-5 -3 -10 5 -5 8 -10 20 -10 25 0 6 5 3 10 -5 5 -8 10 -19 10 -25z m-792 -141
c32 -13 35 -16 19 -25 -16 -9 -69 -4 -90 8 -9 6 11 33 25 33 5 0 25 -7 46 -16z
m622 -23 c23 -6 21 -8 -20 -19 -25 -6 -56 -9 -68 -5 -21 5 -21 6 -5 19 19 14
53 16 93 5z m-630 -28 c-1 -26 -27 -39 -72 -35 -17 2 -17 3 -1 22 17 19 73 29
73 13z m655 -33 c17 -6 14 -9 -17 -15 -43 -8 -92 1 -83 15 7 12 72 12 100 0z
m-355 -29 c5 -11 10 -27 10 -35 0 -9 15 -37 34 -63 18 -27 37 -58 41 -71 7
-23 53 -72 69 -72 10 0 -2 71 -16 87 -5 7 -7 16 -4 22 3 5 0 11 -6 14 -7 2 -9
8 -5 13 4 4 21 -7 37 -26 17 -19 30 -30 30 -25 0 6 3 6 8 -1 7 -11 101 -44
126 -44 8 0 17 -6 20 -12 5 -10 7 -10 12 0 6 13 32 16 56 7 10 -4 13 -16 10
-35 -3 -20 0 -30 8 -30 8 0 11 -9 8 -25 -3 -13 -1 -22 3 -19 5 3 6 -1 3 -9 -9
-24 -164 -53 -164 -31 0 6 -7 14 -15 18 -19 7 -19 6 10 -66 14 -34 25 -62 25
-63 0 -1 -17 -2 -37 -3 -21 -1 -48 -2 -61 -3 -32 -2 -38 8 -19 29 10 10 17 26
17 35 0 10 5 26 12 36 24 40 7 47 -98 44 -123 -4 -122 -4 -217 1 -77 4 -107
16 -107 42 0 18 40 43 73 46 20 2 27 8 27 24 0 12 14 54 30 92 17 39 30 78 30
87 0 22 18 55 30 55 5 0 14 -9 20 -19z m-255 -30 c3 -5 -3 -12 -12 -14 -10 -3
7 -6 37 -7 l55 -2 -55 -12 c-30 -6 -68 -9 -85 -6 -30 4 -30 5 -4 8 17 2 29 11
32 23 5 20 22 25 32 10z m110 -11 c3 -5 -1 -10 -9 -10 -9 0 -16 5 -16 10 0 6
4 10 9 10 6 0 13 -4 16 -10z m525 0 c0 -5 -9 -14 -20 -20 -15 -8 -20 -8 -20 3
0 8 3 17 7 20 10 10 33 8 33 -3z m-270 -20 c0 -5 -4 -10 -10 -10 -5 0 -10 5
-10 10 0 6 5 10 10 10 6 0 10 -4 10 -10z m125 -15 l70 -14 -57 3 c-32 1 -58
-1 -58 -5 0 -4 -13 -1 -30 7 -55 28 -34 31 75 9z m223 -23 c2 -12 -1 -22 -7
-22 -6 0 -11 -7 -11 -16 0 -8 5 -12 10 -9 6 3 10 4 10 1 0 -2 3 -13 7 -23 6
-15 4 -16 -9 -5 -13 10 -17 10 -21 0 -3 -7 -4 5 -2 27 1 22 -2 47 -6 57 -7 12
-5 16 9 14 9 -2 18 -13 20 -24z m49 -49 c-3 -10 -5 -2 -5 17 0 19 2 27 5 18 2
-10 2 -26 0 -35z m-704 16 c-6 -6 -9 -17 -6 -24 2 -7 -3 -27 -11 -44 -9 -17
-17 -34 -17 -38 -1 -5 -10 -19 -20 -32 -14 -17 -17 -33 -13 -61 5 -30 3 -38
-11 -44 -11 -4 -25 0 -35 9 -15 14 -31 18 -86 24 -16 1 -66 80 -59 92 4 5 11
6 17 3 7 -5 9 0 6 13 -7 25 39 51 97 55 26 2 39 8 38 16 -2 7 7 12 20 12 13 0
32 7 43 15 23 18 54 21 37 4z m-466 -76 c-11 -10 -27 8 -27 30 l0 21 16 -22
c9 -13 14 -26 11 -29z m1213 22 c0 -15 -35 -73 -42 -69 -15 9 -8 53 10 63 18
11 32 14 32 6z m-80 -90 c0 -8 -4 -15 -9 -15 -5 0 -11 7 -15 15 -3 9 0 15 9
15 8 0 15 -7 15 -15z m966 -60 c-9 -13 -16 -33 -16 -45 0 -19 -9 -24 -36 -21
-6 1 -17 -10 -24 -24 -7 -14 -20 -25 -29 -25 -11 0 -5 11 19 33 19 18 48 50
63 70 31 42 48 50 23 12z m76 -11 c9 5 20 7 24 4 6 -7 -7 -26 -38 -56 -32 -29
-19 -34 17 -6 19 14 35 22 35 18 -1 -5 -17 -21 -37 -37 -49 -37 -58 -20 -44
88 1 6 7 3 14 -6 9 -12 16 -14 29 -5z m17 -97 c-2 -1 -13 -9 -24 -17 -19 -14
-19 -14 -6 3 7 9 18 17 24 17 6 0 8 -1 6 -3z m-1529 -22 c0 -9 9 -15 25 -15
14 0 25 -4 25 -9 0 -5 16 -12 35 -15 19 -4 35 -11 35 -17 0 -6 -4 -8 -9 -4 -6
3 -14 -2 -19 -12 -10 -17 -52 -26 -52 -11 0 4 9 8 20 8 11 0 20 5 20 10 0 13
-21 13 -55 0 -18 -7 -40 -6 -71 1 -45 12 -54 31 -18 38 10 2 25 12 32 22 16
23 32 25 32 4z m1460 4 c0 -5 -5 -9 -11 -9 -6 0 -8 -9 -4 -20 3 -11 2 -20 -3
-20 -5 0 -12 9 -15 20 -3 11 -10 20 -16 20 -14 0 -14 -27 -1 -35 18 -11 10
-25 -15 -25 -20 0 -25 -5 -25 -25 0 -26 -15 -34 -23 -12 -3 9 -8 9 -18 -2 -11
-10 -11 -15 -1 -18 6 -3 12 -9 12 -15 0 -6 -7 -7 -16 -4 -24 9 -143 -109 -137
-135 4 -13 0 -19 -12 -19 -11 0 -15 5 -11 15 4 12 2 13 -14 3 -14 -9 -16 -14
-7 -20 9 -6 7 -11 -6 -19 -9 -5 -23 -16 -30 -23 -10 -11 -16 -11 -33 1 -21 13
-25 11 -63 -26 -47 -47 -51 -48 -51 -22 0 10 27 45 60 77 33 32 60 64 60 71 0
6 12 21 26 32 15 12 23 21 19 21 -4 0 4 11 19 25 14 13 26 34 26 47 0 15 3 19
10 12 7 -7 30 9 70 48 56 55 70 66 70 52 0 -3 -40 -45 -89 -93 -49 -47 -87
-91 -84 -98 8 -22 62 20 79 62 9 22 19 34 21 28 14 -39 103 8 103 54 0 13 4
23 9 23 5 0 11 8 13 18 4 14 15 18 47 19 22 0 41 -3 41 -8z m-1570 -53 c0 -3
-4 -8 -10 -11 -5 -3 -10 -1 -10 4 0 6 5 11 10 11 6 0 10 -2 10 -4z m267 -12
c-3 -3 -12 -4 -19 -1 -8 3 -5 6 6 6 11 1 17 -2 13 -5z m-188 -30 c2 -2 -12 -4
-33 -4 -22 0 -35 4 -31 10 5 9 52 4 64 -6z m270 -78 c-7 -14 -17 -25 -23 -24
-6 1 -23 -6 -38 -15 -40 -27 -129 -57 -169 -57 -37 0 -138 47 -172 79 -18 17
-10 18 165 25 125 5 184 4 186 -3 6 -18 26 -12 40 10 18 28 26 18 11 -15z
m1076 5 c-3 -6 -11 -11 -16 -11 -5 0 -4 6 3 14 14 16 24 13 13 -3z m-35 -77
c0 -8 -4 -12 -10 -9 -5 3 -10 10 -10 16 0 5 5 9 10 9 6 0 10 -7 10 -16z m165
-4 c-3 -5 -13 -10 -21 -10 -8 0 -12 5 -9 10 3 6 13 10 21 10 8 0 12 -4 9 -10z
m-221 -15 c-4 -8 -8 -15 -10 -15 -2 0 -4 7 -4 15 0 8 4 15 10 15 5 0 7 -7 4
-15z m83 -17 c-3 -7 -5 -2 -5 12 0 14 2 19 5 13 2 -7 2 -19 0 -25z m54 -19
c-9 -23 -10 -22 -10 11 -1 23 2 31 9 24 7 -7 7 -19 1 -35z m-41 -30 c0 -12 -5
-17 -10 -14 -6 4 -17 2 -24 -4 -10 -9 -15 -8 -19 2 -7 19 8 41 22 33 6 -4 11
-2 11 4 0 6 5 8 10 5 6 -3 10 -15 10 -26z m178 -59 l0 -35 -8 30 c-4 17 -8 41
-8 55 -1 23 0 23 8 5 5 -11 8 -36 8 -55z m-120 -30 l0 -35 -9 40 c-4 22 -8 49
-7 60 0 16 2 15 8 -5 4 -14 8 -41 8 -60z m152 70 c0 -5 -5 -10 -11 -10 -5 0
-7 5 -4 10 3 6 8 10 11 10 2 0 4 -4 4 -10z m-330 -16 c0 -8 -5 -12 -10 -9 -6
4 -8 11 -5 16 9 14 15 11 15 -7z m237 -41 c-3 -10 -5 -4 -5 12 0 17 2 24 5 18
2 -7 2 -21 0 -30z m-412 -36 c3 -33 1 -36 -26 -35 -34 1 -36 8 -9 28 11 8 20
23 20 34 0 32 11 11 15 -27z m72 21 c-3 -8 -6 -5 -6 6 -1 11 2 17 5 13 3 -3 4
-12 1 -19z m-147 7 c0 -2 -10 -10 -22 -16 -21 -11 -22 -11 -9 4 13 16 31 23
31 12z m190 -21 c0 -8 -4 -12 -10 -9 -5 3 -10 10 -10 16 0 5 5 9 10 9 6 0 10
-7 10 -16z m164 -47 c-10 -26 -22 -20 -16 9 3 15 8 22 14 16 5 -5 6 -16 2 -25z
m33 1 c-3 -7 -5 -2 -5 12 0 14 2 19 5 13 2 -7 2 -19 0 -25z m-173 -24 c11 -8
32 -11 50 -7 30 5 30 5 11 -10 -27 -22 -35 -21 -62 5 -20 18 -23 19 -23 5 0
-9 -4 -17 -10 -17 -5 0 -10 -13 -10 -30 0 -16 -9 -44 -20 -62 -18 -30 -20 -31
-20 -10 0 13 5 33 11 44 7 12 7 18 1 14 -8 -5 -10 31 -3 87 1 10 51 -3 75 -19z
m106 6 c0 -5 -5 -10 -11 -10 -5 0 -7 5 -4 10 3 6 8 10 11 10 2 0 4 -4 4 -10z
m205 -30 c3 -5 1 -10 -4 -10 -6 0 -11 5 -11 10 0 6 2 10 4 10 3 0 8 -4 11 -10z
m-111 -53 c7 -6 6 -7 -4 -4 -8 2 -16 14 -17 28 -1 19 -1 20 4 4 3 -11 10 -24
17 -28z m-129 3 c11 -12 31 -20 51 -20 18 0 36 -4 39 -10 3 -5 -1 -10 -9 -10
-9 0 -16 -7 -16 -15 0 -8 -4 -15 -9 -15 -5 0 -11 -6 -14 -12 -2 -7 -2 0 0 15
5 27 4 28 -16 15 -12 -7 -21 -16 -21 -20 0 -5 -4 -8 -10 -8 -5 0 -10 7 -10 15
0 21 -24 19 -45 -5 -24 -27 -31 -19 -27 29 4 38 6 41 36 41 24 0 27 3 16 10
-13 8 -13 10 1 10 9 0 24 -9 34 -20z m-2495 -40 c0 -5 -8 -10 -17 -10 -15 0
-16 2 -3 10 19 12 20 12 20 0z m2403 -193 c-6 -29 -23 -27 -23 3 0 10 -7 26
-16 35 -9 8 -13 23 -10 31 10 27 55 -36 49 -69z m-1158 -251 c30 -45 -20 -91
-64 -59 -23 16 -28 52 -9 71 20 20 56 14 73 -12z"/>
<path d="M1544 3025 c-16 -12 -17 -16 -5 -24 11 -7 19 -5 28 7 24 33 11 43
-23 17z"/>
<path d="M1480 2970 c0 -5 5 -10 11 -10 5 0 7 5 4 10 -3 6 -8 10 -11 10 -2 0
-4 -4 -4 -10z"/>
<path d="M1565 2970 c-19 -8 -19 -9 3 -9 12 -1 22 4 22 9 0 6 -1 10 -2 9 -2 0
-12 -4 -23 -9z"/>
<path d="M1640 2886 c0 -2 7 -7 16 -10 8 -3 12 -2 9 4 -6 10 -25 14 -25 6z"/>
<path d="M1480 2859 c0 -5 5 -7 10 -4 6 3 10 8 10 11 0 2 -4 4 -10 4 -5 0 -10
-5 -10 -11z"/>
<path d="M1455 2830 c-3 -5 1 -10 9 -10 8 0 18 5 21 10 3 6 -1 10 -9 10 -8 0
-18 -4 -21 -10z"/>
<path d="M2765 1440 c-3 -5 -1 -10 4 -10 6 0 11 5 11 10 0 6 -2 10 -4 10 -3 0
-8 -4 -11 -10z"/>
<path d="M2700 1388 c0 -4 4 -8 9 -8 6 0 12 4 15 8 3 5 -1 9 -9 9 -8 0 -15 -4
-15 -9z"/>
<path d="M0 1830 c0 -5 5 -10 10 -10 6 0 10 5 10 10 0 6 -4 10 -10 10 -5 0
-10 -4 -10 -10z"/>
<path d="M690 215 c-17 -20 -9 -69 13 -73 15 -3 18 3 15 38 -2 46 -10 56 -28
35z"/>
<path d="M897 223 c-12 -11 -8 -23 8 -23 8 0 15 7 15 15 0 16 -12 20 -23 8z"/>
<path d="M1015 190 c-3 -5 -19 -10 -36 -10 -25 0 -29 -4 -29 -27 l0 -27 15 21
c9 12 31 25 50 29 19 3 35 10 35 15 0 12 -27 11 -35 -1z"/>
<path d="M885 160 c-7 -11 2 -30 14 -30 5 0 11 9 14 20 5 21 -16 29 -28 10z"/>
<path d="M1030 140 c-8 -5 -18 -6 -22 -4 -4 3 -8 0 -8 -5 0 -14 37 -14 45 0
10 15 2 20 -15 9z"/>
<path d="M1228 107 c7 -8 8 -18 4 -22 -4 -5 -1 -5 6 -1 17 10 15 23 -4 30 -13
5 -14 4 -6 -7z"/>
<path d="M1028 3 c6 -2 18 -2 25 0 6 3 1 5 -13 5 -14 0 -19 -2 -12 -5z"/>
</g>
</svg>
